<svg xmlns="http://www.w3.org/2000/svg" class="small-app__image lazyloaded" id="icon-vodafone-popular" viewBox="0 0 160 160" width="100%" height="100%" style="fill: transparent;stroke: white;stroke-width: 7.2px;">
                            <title stroke="#ffffff" fill="rgba(0, 0, 0, 0)" stroke-width="7.2px">
                                popular
                            </title>
                            <path d="M81.59,148H46.4a6.3,6.3,0,0,1-5.61-2.9,6.14,6.14,0,0,1,.14-6.26L58.57,105.5a5.88,5.88,0,0,1,10.68,0l17.83,33.33a6.13,6.13,0,0,1,.14,6.26A6.3,6.3,0,0,1,81.59,148Z" transform="translate(-16 -16)" stroke-linecap="round" stroke-miterlimit="10" stroke="#ffffff" fill="rgba(0, 0, 0, 0)" stroke-width="7.2px"></path>
                            <path d="M64,84A20,20,0,1,1,84,64,20,20,0,0,1,64,84Z" transform="translate(-16 -16)" stroke-linecap="round" stroke-miterlimit="10" stroke="#ffffff" fill="rgba(0, 0, 0, 0)" stroke-width="7.2px"></path>
                            <polygon points="112 85 135.5 103.8 126.1 132 97.9 132 88.5 103.8 112 85" stroke-linecap="round" stroke-linejoin="round" stroke="#ffffff" fill="rgba(0, 0, 0, 0)" stroke-width="7.2px"></polygon>
                            <rect x="92" y="28" width="40" height="40" rx="8.89" ry="8.89" stroke-linecap="round" stroke-miterlimit="10" stroke="#ffffff" fill="rgba(0, 0, 0, 0)" stroke-width="7.2px"></rect>
                            <rect x="4" y="4" width="152" height="152" rx="20" ry="20" stroke-linecap="round" stroke-linejoin="round" stroke="#ffffff" fill="rgba(0, 0, 0, 0)" stroke-width="7.2px"></rect>
                        </svg>