<svg xmlns="http://www.w3.org/2000/svg" aria-hidden="true" class="icon icon--extra-large icon--empty" focusable="false" viewBox="0 0 192 192">
			
		<defs><symbol id="dna" data-name="Data_ic_hi" viewBox="0 0 192 192"><path d="M158.34 124H144V84a16 16 0 0 0-16-16H96v56H81.66a4 4 0 0 0-2.83 6.83L120 172l41.17-41.17a4 4 0 0 0-2.83-6.83z" fill="#6200ea"></path><path d="M33.67 68H48v40a16 16 0 0 0 16 16h32V68h14.34a4 4 0 0 0 2.83-6.83L72 20 30.85 61.17A4 4 0 0 0 33.67 68z" fill="#fff"></path><g opacity=".06"><path d="M48 66H33.67a3.93 3.93 0 0 1-3.84-3 4 4 0 0 0 3.84 5H48zM48 106v2a16 16 0 0 0 16 16h32v-2H64a16 16 0 0 1-16-16zM110.36 66H96v2h14.34a4 4 0 0 0 3.84-5 3.93 3.93 0 0 1-3.82 3z"></path></g><path d="M161.17 128.83L120 170l-41.17-41.17a3.91 3.91 0 0 1-1-1.8 3.88 3.88 0 0 0 1 3.8L120 172l41.17-41.17a3.88 3.88 0 0 0 1-3.8 3.91 3.91 0 0 1-1 1.8z" opacity=".12"></path><path data-name="Bounding Box" fill="none" d="M0 0h192v192H0z"></path></symbol></defs><g data-name="Data_ic" stroke="none" fill="none" stroke-width="0px"><path d="M158.34 124H144V84a16 16 0 0 0-16-16H96v56H81.66a4 4 0 0 0-2.83 6.83L120 172l41.17-41.17a4 4 0 0 0-2.83-6.83z" fill="#6200ea" stroke="none" stroke-width="0px"></path><path d="M33.67 68H48v40a16 16 0 0 0 16 16h32V68h14.34a4 4 0 0 0 2.83-6.83L72 20 30.85 61.17A4 4 0 0 0 33.67 68z" fill="#ffffff" stroke="none" stroke-width="0px"></path><g opacity=".06" stroke="none" fill="none" stroke-width="0px"><path d="M48 66H33.67a3.93 3.93 0 0 1-3.84-3 4 4 0 0 0 3.84 5H48zM48 106v2a16 16 0 0 0 16 16h32v-2H64a16 16 0 0 1-16-16zM110.36 66H96v2h14.34a4 4 0 0 0 3.84-5 3.93 3.93 0 0 1-3.82 3z" stroke="none" fill="none" stroke-width="0px"></path></g><path d="M161.17 128.83L120 170l-41.17-41.17a3.91 3.91 0 0 1-1-1.8 3.88 3.88 0 0 0 1 3.8L120 172l41.17-41.17a3.88 3.88 0 0 0 1-3.8 3.91 3.91 0 0 1-1 1.8z" opacity=".12" stroke="none" fill="none" stroke-width="0px"></path><path data-name="Bounding Box" fill="none" d="M0 0h192v192H0z" stroke="none" stroke-width="0px"></path></g></svg>
