<?xml version="1.0" encoding="utf-8"?>
<!DOCTYPE svg PUBLIC "-//W3C//DTD SVG 1.1//EN" "http://www.w3.org/Graphics/SVG/1.1/DTD/svg11.dtd">
<svg version="1.1"
	 id="Layer_1" xmlns:inkscape="http://www.inkscape.org/namespaces/inkscape" xmlns:sodipodi="http://sodipodi.sourceforge.net/DTD/sodipodi-0.dtd" xmlns:svg="http://www.w3.org/2000/svg" xmlns:rdf="http://www.w3.org/1999/02/22-rdf-syntax-ns#" xmlns:cc="http://creativecommons.org/ns#" xmlns:dc="http://purl.org/dc/elements/1.1/"
	 xmlns="http://www.w3.org/2000/svg" xmlns:xlink="http://www.w3.org/1999/xlink" x="0px" y="0px" width="50px" height="50px"
	 viewBox="25 -12.5 50 50" enable-background="new 25 -12.5 50 50" xml:space="preserve">
<g>
	<path fill="none" stroke="#6200EA" stroke-width="2" stroke-miterlimit="10" d="M35.023-10.5c-2.782,0-4.827,1.954-6.118,4.413
		C27.615-3.628,27-0.615,27,1.802c0,6.14,1.623,11.673,4.948,17.534c0.005,0.017,0.01,0.034,0.017,0.05
		c0.014,0.029,0.031,0.057,0.05,0.084c5.29,9.26,12.118,16.03,20.66,16.03c1.824,0,3.67-0.931,5.081-2.307s2.407-3.222,2.407-5.182
		c0.004-0.127-0.037-0.252-0.117-0.351c-1.391-1.708-5.382-5.9-5.382-5.9c0-0.006,0-0.011,0-0.017
		c-0.291-0.291-0.675-0.469-1.053-0.501c-0.379-0.033-0.741,0.063-1.103,0.201c-0.713,0.272-1.45,0.76-2.24,1.287
		c-0.011,0.007-0.022,0.009-0.033,0.017c-1.062,0.614-1.773,0.813-2.323,0.735c-0.557-0.078-1.089-0.455-1.805-1.203
		c-2.015-2.118-4.193-5.092-5.8-7.906c-1.592-2.786-2.334-5.555-3.159-8.441c-0.289-1.021-0.42-1.806-0.267-2.424
		c0.152-0.612,0.566-1.161,1.605-1.772c0.008-0.005,0.008-0.012,0.017-0.017c0.478-0.257,1.155-0.58,1.738-0.969
		c0.295-0.197,0.563-0.414,0.786-0.669c0.223-0.255,0.418-0.565,0.418-0.953c0-0.045-0.006-0.09-0.017-0.134
		c0,0-1.368-5.964-2.156-8.09c-0.04-0.102-0.11-0.19-0.201-0.251C37.904-10.123,36.422-10.5,35.023-10.5L35.023-10.5z"/>
	<path fill="none" stroke="#6200EA" stroke-width="2" stroke-miterlimit="10" d="M58.558-10.5c-7.916,0-14.442,5.204-14.442,11.767
		c0,3.652,2.095,6.614,5.232,8.725l-2.524,6.051c-0.11,0.274,0.024,0.586,0.298,0.695c0.148,0.059,0.314,0.049,0.454-0.027
		l7.856-4.196c0.931,0.189,1.996,0.518,3.126,0.518C66.474,13.035,73,7.83,73,1.267S66.474-10.5,58.558-10.5z"/>
</g>
</svg>
