<svg xmlns="http://www.w3.org/2000/svg" aria-hidden="true" class="icon icon--extra-large pass__icon-svg" focusable="false" viewBox="0 0 160 160"><circle cx="104.3" cy="69.3" r="11" stroke="#a8b600" fill="none" stroke-width="9px"/><path d="M54.3 11.5v123.4M109.8 41.3c13.4 2.7 23.4 14.1 24.2 27.8.4 7.3-1.8 14.5-6.3 20.3l-18 24.1-5.5 6.8-5.5-6.8-18-24c-4.4-5.8-6.7-13-6.3-20.3C75.5 55.4 85.5 44 98.9 41.3c1.8-.3 3.6-.5 5.4-.5 1.9 0 3.7.1 5.5.5zM104.4 120.3v28M104.3 26.4v14.4" stroke="#a8b600" fill="none" stroke-width="9px"/><path d="M156.1 134.8V12.9l-51.8 13.5-50-14.9L4.1 24.8v121.9l50.2-11.8 50.1 13.4z" stroke="#a8b600" fill="none" stroke-width="9px"/></svg>