<svg id="9b201dd0-602c-462b-9a57-c44720ea3d92" data-name="Layer 1" xmlns="http://www.w3.org/2000/svg" width="63.5mm" height="119.9mm" viewBox="0 0 180 340">
  <title>VF_Pass</title>
  <path d="M330.4,128.5v44a5,5,0,1,0,0,10h0v262a12,12,0,0,1-12,12h-156a12,12,0,0,1-12-12v-262a5,5,0,0,0,0-10h0v-44a12,12,0,0,1,12-12h156A12,12,0,0,1,330.4,128.5Zm-113,9.5a5.5,5.5,0,0,0,5.5,5.5h35a5.5,5.5,0,1,0,0-11H223A5.5,5.5,0,0,0,217.5,138Z" transform="translate(-150.4 -116.5)" style="fill: #fff;fill-rule: evenodd"/>
  <path d="M150.4,444.5v-181l180,100v81a12,12,0,0,1-12,12h-156A12,12,0,0,1,150.4,444.5Z" transform="translate(-150.4 -116.5)" style="fill: #6200ea;fill-rule: evenodd"/>
  <path d="M160.4,176.5a1,1,0,1,0,1,1A1,1,0,0,0,160.4,176.5Zm5.9,0a1,1,0,1,0,1,1A1,1,0,0,0,166.4,176.5Zm5.9,0a1,1,0,1,0,1,1A1,1,0,0,0,172.3,176.5Zm5.9,0a1,1,0,1,0,1,1A1,1,0,0,0,178.2,176.5Zm5.9,0a1,1,0,1,0,1,1A1,1,0,0,0,184.1,176.5Zm5.9,0a1,1,0,1,0,1,1A1,1,0,0,0,190.1,176.5Zm5.9,0a1,1,0,1,0,1,1A1,1,0,0,0,196,176.5Zm5.9,0a1,1,0,1,0,1,1A1,1,0,0,0,201.9,176.5Zm5.9,0a1,1,0,1,0,1,1A1,1,0,0,0,207.9,176.5Zm5.9,0a1,1,0,1,0,1,1A1,1,0,0,0,213.8,176.5Zm5.9,0a1,1,0,1,0,1,1A1,1,0,0,0,219.7,176.5Zm5.9,0a1,1,0,1,0,1,1A1,1,0,0,0,225.6,176.5Zm5.9,0a1,1,0,1,0,1,1A1,1,0,0,0,231.6,176.5Zm5.9,0a1,1,0,1,0,1,1A1,1,0,0,0,237.5,176.5Zm5.9,0a1,1,0,1,0,1,1A1,1,0,0,0,243.4,176.5Zm5.9,0a1,1,0,1,0,1,1A1,1,0,0,0,249.3,176.5Zm5.9,0a1,1,0,1,0,1,1A1,1,0,0,0,255.3,176.5Zm5.9,0a1,1,0,1,0,1,1A1,1,0,0,0,261.2,176.5Zm5.9,0a1,1,0,1,0,1,1A1,1,0,0,0,267.1,176.5Zm5.9,0a1,1,0,1,0,1,1A1,1,0,0,0,273,176.5Zm5.9,0a1,1,0,1,0,1,1A1,1,0,0,0,279,176.5Zm5.9,0a1,1,0,1,0,1,1A1,1,0,0,0,284.9,176.5Zm5.9,0a1,1,0,1,0,1,1A1,1,0,0,0,290.8,176.5Zm5.9,0a1,1,0,1,0,1,1A1,1,0,0,0,296.7,176.5Zm5.9,0a1,1,0,1,0,1,1A1,1,0,0,0,302.7,176.5Zm5.9,0a1,1,0,1,0,1,1A1,1,0,0,0,308.6,176.5Zm5.9,0a1,1,0,1,0,1,1A1,1,0,0,0,314.5,176.5Zm5.9,0a1,1,0,1,0,1,1A1,1,0,0,0,320.4,176.5Z" transform="translate(-150.4 -116.5)" style="fill: #6200ea"/>
</svg>
