<svg xmlns="http://www.w3.org/2000/svg" xmlns:xlink="http://www.w3.org/1999/xlink" version="1.1" x="0px" y="0px" viewBox="0 0 2000 2000" style="enable-background:new 0 0 2000 2000;" xml:space="preserve"><path fill="#6200EA" d="M1937.5,104c-0.2,0-0.3,0-0.5,0l0,0h-237l0,0c-28.7,0.2-52.8,19.8-59.9,46.3L1582.7,300H1313H999H688l0,0  l0,0c-0.2,0-0.3,0-0.5,0s-0.3,0-0.5,0l0,0H62l0,0c-28.2,0.2-52,19.1-59.5,45c-3.6,11.8-3.7,24.8,0.4,37.4c0.1,0.2,0.1,0.3,0.2,0.5  l0,0l262.6,802.9c7.8,25.5,31.3,44,59.3,44.2l0,0h811.4h208.7h21.2c4.3,0.4,8.5,0.4,12.6,0c70.4,8.4,125,68.3,125,141  c0,75.1-58.2,136.5-132,141.6v0.4h-9h-226H423l0,0c-0.3,0-0.6,0-0.8,0c-1.1,0-2.1,0-3.2,0c-105.5,0-191,85.5-191,191  s85.5,191,191,191s191-85.5,191-191c0-23.2-4.1-45.4-11.7-66h486.4c-7.6,20.6-11.7,42.8-11.7,66c0,105.5,85.5,191,191,191  s191-85.5,191-191c0-27.8-6-54.3-16.7-78.1C1548,1593.1,1628,1491.4,1628,1371c0-114.8-72.8-212.7-174.7-249.9l231.8-738.5l0,0  c0.1-0.2,0.1-0.3,0.2-0.5c0.1-0.4,0.3-0.9,0.4-1.3l58.2-151.7H1937l0,0c0.2,0,0.3,0,0.5,0c34.5,0,62.5-28,62.5-62.5  C2000,132,1972,104,1937.5,104z M419,1770c-36.5,0-66-29.5-66-66s29.5-66,66-66s66,29.5,66,66S455.5,1770,419,1770z M1264,1770  c-36.5,0-66-29.5-66-66s29.5-66,66-66s66,29.5,66,66S1300.5,1770,1264,1770z M1327.3,1105H370.8L148.4,425H687l0,0  c0.2,0,0.3,0,0.5,0s0.3,0,0.5,0l0,0l0,0h311h314h227.7L1327.3,1105z"/></svg>
