<svg xmlns="http://www.w3.org/2000/svg" aria-hidden="true" class="icon icon--fill icon--medium" focusable="false" viewBox="0 0 160.08 110.9">
												
											<path d="M158.18 22a20.6 20.6 0 0 0-17.9-18.1 468.12 468.12 0 0 0-120.6 0A20.5 20.5 0 0 0 1.88 22a299.31 299.31 0 0 0 0 66.9 20.5 20.5 0 0 0 17.8 18.1 468.8 468.8 0 0 0 60.4 3.9 467.26 467.26 0 0 0 60.3-3.9 20.5 20.5 0 0 0 17.8-18.1 288.13 288.13 0 0 0 1.9-33.5 286.42 286.42 0 0 0-1.9-33.4zm-54.9 36.6l-32.8 23.1a2.89 2.89 0 0 1-4-.7 2.62 2.62 0 0 1-.5-1.7V31.4a2.88 2.88 0 0 1 2.8-2.9 3.37 3.37 0 0 1 1.7.5l32.8 23.1a3.89 3.89 0 0 1 1 5.42l-.06.08a3 3 0 0 1-.94 1z" stroke="none" fill="#ffffff" stroke-width="0px"></path></svg>